<svg xmlns="http://www.w3.org/2000/svg" xmlns:xlink="http://www.w3.org/1999/xlink" width="28" height="28" viewBox="0 0 28 28">
  <defs>
    <clipPath id="clip-path">
      <rect id="사각형_43145" data-name="사각형 43145" width="20" height="20" transform="translate(0.031 0.031)" fill="none" stroke="#fff" stroke-width="1.5"/>
    </clipPath>
  </defs>
  <g id="camera_circle" transform="translate(-576 -929)">
    <circle id="타원_4104" data-name="타원 4104" cx="14" cy="14" r="14" transform="translate(576 929)" fill="#5c5e66"/>
    <g id="camera_20px" transform="translate(579.969 932.969)" opacity="0.7">
      <g id="그룹_182255" data-name="그룹 182255">
        <g id="그룹_182252" data-name="그룹 182252">
          <g id="그룹_182251" data-name="그룹 182251" clip-path="url(#clip-path)">
            <path id="패스_92864" data-name="패스 92864" d="M18.047,15.266a1.239,1.239,0,0,1-.4.9,1.418,1.418,0,0,1-.967.375H4.368A1.418,1.418,0,0,1,3.4,16.17a1.239,1.239,0,0,1-.4-.9V8.333a1.239,1.239,0,0,1,.4-.9,1.41,1.41,0,0,1,.967-.374H6.983l1.489-1.82h4.1l1.489,1.82h2.616a1.41,1.41,0,0,1,.967.374,1.238,1.238,0,0,1,.4.9Z" transform="translate(-0.492 -1.057)" fill="none" stroke="#fff" stroke-linecap="round" stroke-linejoin="round" stroke-width="1.5"/>
            <circle id="타원_4105" data-name="타원 4105" cx="2.508" cy="2.508" r="2.508" transform="translate(7.523 8.162)" fill="none" stroke="#fff" stroke-linecap="round" stroke-linejoin="round" stroke-width="1.5"/>
          </g>
        </g>
      </g>
    </g>
  </g>
</svg>
