<svg id="check_box_-_default" data-name="check box - default" xmlns="http://www.w3.org/2000/svg" width="20" height="20" viewBox="0 0 20 20">
  <path id="패스_1972" data-name="패스 1972" d="M-3720.049-1436.56h-11.363a2.327,2.327,0,0,0-2.318,2.318v11.363a2.327,2.327,0,0,0,2.318,2.318h11.364a2.327,2.327,0,0,0,2.318-2.318v-11.363A2.327,2.327,0,0,0-3720.049-1436.56Zm1.183,13.682a1.187,1.187,0,0,1-1.182,1.182h-11.364a1.185,1.185,0,0,1-1.182-1.182v-11.363a1.184,1.184,0,0,1,1.181-1.182h11.365a1.187,1.187,0,0,1,1.182,1.182Z" transform="translate(3735.73 1438.56)" fill="rgba(0,0,0,0.4)"/>
  <rect id="사각형_2137" data-name="사각형 2137" width="20" height="20" fill="none"/>
</svg>
