<svg id="info_16px" xmlns="http://www.w3.org/2000/svg" xmlns:xlink="http://www.w3.org/1999/xlink" width="16" height="16" viewBox="0 0 16 16">
  <defs>
    <clipPath id="clip-path">
      <rect id="사각형_40852" data-name="사각형 40852" width="14" height="14" fill="rgba(0,0,0,0.4)"/>
    </clipPath>
  </defs>
  <g id="그룹_179105" data-name="그룹 179105" transform="translate(1 1)">
    <g id="그룹_177515" data-name="그룹 177515" clip-path="url(#clip-path)">
      <path id="패스_91984" data-name="패스 91984" d="M7,0a7,7,0,1,0,7,7A7,7,0,0,0,7,0m.742,10.878A1,1,0,0,1,7,11.165a1.025,1.025,0,0,1-.742-.287.991.991,0,0,1-.294-.742,1.036,1.036,0,1,1,1.778.742m.952-3.955a3.315,3.315,0,0,0-.742.735,1.322,1.322,0,0,0-.2.728H6.132A2.727,2.727,0,0,1,6.349,7.2a2.44,2.44,0,0,1,.756-.861,4.293,4.293,0,0,0,.686-.623.879.879,0,0,0,.2-.581.718.718,0,0,0-.252-.581,1.086,1.086,0,0,0-.714-.21.987.987,0,0,0-.742.28.934.934,0,0,0-.266.679H4.312a2.372,2.372,0,0,1,.35-1.26,2.449,2.449,0,0,1,.959-.889,2.93,2.93,0,0,1,1.4-.322,3.209,3.209,0,0,1,1.428.294,2.118,2.118,0,0,1,.91.819,2.274,2.274,0,0,1,.315,1.19A2.228,2.228,0,0,1,8.687,6.93Z" fill="rgba(0,0,0,0.4)"/>
    </g>
  </g>
  <rect id="사각형_40989" data-name="사각형 40989" width="16" height="16" fill="none"/>
</svg>
