<svg xmlns="http://www.w3.org/2000/svg" width="12" height="12" viewBox="0 0 12 12">
  <g id="그룹_181346" data-name="그룹 181346" transform="translate(-298.374 -411.284)">
    <path id="패스_1979" data-name="패스 1979" d="M308.617,413.041a6,6,0,1,0,0,8.484A6,6,0,0,0,308.617,413.041Zm-1.663,2.513-1.731,1.731,1.731,1.73a.6.6,0,1,1-.846.846l-1.731-1.73-1.73,1.73a.6.6,0,0,1-.846-.846l1.73-1.73-1.73-1.731a.6.6,0,0,1,.846-.846l1.73,1.731,1.731-1.731a.6.6,0,0,1,.846.846Z" fill="rgba(0,0,0,0.3)"/>
  </g>
</svg>
