<svg xmlns="http://www.w3.org/2000/svg" xmlns:xlink="http://www.w3.org/1999/xlink" width="24" height="24" viewBox="0 0 24 24">
  <defs>
    <clipPath id="clip-path">
      <rect id="사각형_42387" data-name="사각형 42387" width="24" height="24" fill="#00b295"/>
    </clipPath>
  </defs>
  <g id="그룹_181205" data-name="그룹 181205" clip-path="url(#clip-path)">
    <g id="그룹_181204" data-name="그룹 181204">
      <g id="그룹_181203" data-name="그룹 181203" clip-path="url(#clip-path)">
        <path id="패스_92572" data-name="패스 92572" d="M13,4H8a.5.5,0,0,1-.5-.5v-2A.5.5,0,0,1,8,1h5a.5.5,0,0,1,.5.5v2A.5.5,0,0,1,13,4" fill="#00b295"/>
        <path id="패스_92573" data-name="패스 92573" d="M16.121,2H14.747V3.391a1.832,1.832,0,0,1-1.873,1.786H8.156A1.834,1.834,0,0,1,6.28,3.389V2H4.872A1.83,1.83,0,0,0,3,3.785V17.211A1.834,1.834,0,0,0,4.876,19H16.123A1.835,1.835,0,0,0,18,17.211V3.791A1.837,1.837,0,0,0,16.121,2" fill="#00b295"/>
        <path id="패스_92574" data-name="패스 92574" d="M19.4,3.03a3.2,3.2,0,0,1,.1.762V17.211A3.337,3.337,0,0,1,16.124,20.5H6.067A1.9,1.9,0,0,0,7.877,22H19.124A1.941,1.941,0,0,0,21,20V5A1.96,1.96,0,0,0,19.4,3.03" fill="#00b295"/>
      </g>
    </g>
  </g>
</svg>
