<svg id="decrease_selected_24" xmlns="http://www.w3.org/2000/svg" xmlns:xlink="http://www.w3.org/1999/xlink" width="24" height="24" viewBox="0 0 24 24">
  <defs>
    <clipPath id="clip-path">
      <rect id="사각형_43356" data-name="사각형 43356" width="24" height="24" fill="#00b295"/>
    </clipPath>
  </defs>
  <g id="그룹_182818" data-name="그룹 182818" clip-path="url(#clip-path)">
    <path id="패스_92885" data-name="패스 92885" d="M14,12v8a1,1,0,0,1-1,1H11a1,1,0,0,1-1-1V12a1,1,0,0,1,1-1h2a1,1,0,0,1,1,1" fill="#00b295"/>
    <path id="패스_92886" data-name="패스 92886" d="M8.024,7.031v13.1a.943.943,0,0,1-1,.873h-2a.943.943,0,0,1-1-.873V7.031a.943.943,0,0,1,1-.873h2a.943.943,0,0,1,1,.873" fill="#00b295"/>
    <path id="패스_92887" data-name="패스 92887" d="M20,16v4a1,1,0,0,1-1,1H17a1,1,0,0,1-1-1V16a1,1,0,0,1,1-1h2a1,1,0,0,1,1,1" fill="#00b295"/>
    <path id="패스_92888" data-name="패스 92888" d="M18.859,10.037H18.82a15.379,15.379,0,0,1-4.589-1.119A18.973,18.973,0,0,1,5.724,2.135.9.9,0,0,1,7.2,1.1,16.479,16.479,0,0,0,18.9,8.238a.9.9,0,0,1-.037,1.8Z" transform="translate(0.463 1)" fill="#00b295"/>
    <path id="패스_92889" data-name="패스 92889" d="M17.452,11.9a.9.9,0,0,1-.595-1.576L18.362,9,17.1,7.551a.9.9,0,1,1,1.359-1.181L20.308,8.5a.9.9,0,0,1-.085,1.266l-2.177,1.914A.9.9,0,0,1,17.452,11.9Z" transform="translate(0.463 1)" fill="#00b295"/>
  </g>
</svg>
