<svg id="factory_24px" xmlns="http://www.w3.org/2000/svg" xmlns:xlink="http://www.w3.org/1999/xlink" width="24" height="24" viewBox="0 0 24 24">
  <defs>
    <clipPath id="clip-path">
      <rect id="사각형_42534" data-name="사각형 42534" width="24" height="24" fill="none"/>
    </clipPath>
  </defs>
  <g id="그룹_181512" data-name="그룹 181512" clip-path="url(#clip-path)">
    <g id="그룹_181511" data-name="그룹 181511">
      <g id="그룹_181510" data-name="그룹 181510" clip-path="url(#clip-path)">
        <path id="패스_92602" data-name="패스 92602" d="M21.619,10.7,15.842,7.519a.5.5,0,0,0-.777.416V11L9.842,7.519a.5.5,0,0,0-.777.416V11L2.842,7.519a.5.5,0,0,0-.777.416V21a1,1,0,0,0,1,1h18a1,1,0,0,0,1-1V11.535a1,1,0,0,0-.446-.832M7.565,15.717a.5.5,0,0,1-.5.5h-2a.5.5,0,0,1-.5-.5v-2a.5.5,0,0,1,.5-.5h2a.5.5,0,0,1,.5.5Zm6,0a.5.5,0,0,1-.5.5h-2a.5.5,0,0,1-.5-.5v-2a.5.5,0,0,1,.5-.5h2a.5.5,0,0,1,.5.5Zm6,0a.5.5,0,0,1-.5.5h-2a.5.5,0,0,1-.5-.5v-2a.5.5,0,0,1,.5-.5h2a.5.5,0,0,1,.5.5Z"/>
        <path id="패스_92603" data-name="패스 92603" d="M7.564,2.444a.5.5,0,0,0-.5-.5h-3a.5.5,0,0,0-.5.5V6.2l4,2.247Z"/>
      </g>
    </g>
  </g>
</svg>
