<svg xmlns="http://www.w3.org/2000/svg" xmlns:xlink="http://www.w3.org/1999/xlink" width="24" height="24" viewBox="0 0 24 24">
  <defs>
    <clipPath id="clip-path">
      <rect id="사각형_42350" data-name="사각형 42350" width="24" height="24" fill="#00b295"/>
    </clipPath>
  </defs>
  <g id="그룹_181124" data-name="그룹 181124" clip-path="url(#clip-path)">
    <g id="그룹_181123" data-name="그룹 181123">
      <g id="그룹_181122" data-name="그룹 181122" clip-path="url(#clip-path)">
        <path id="패스_92533" data-name="패스 92533" d="M21,16h-.75V12A1.252,1.252,0,0,0,19,10.75H12.75V8h.75a1,1,0,0,0,1-1V4a1,1,0,0,0-1-1h-3a1,1,0,0,0-1,1V7a1,1,0,0,0,1,1h.75v2.75H5A1.252,1.252,0,0,0,3.75,12v4H3a1,1,0,0,0-1,1v3a1,1,0,0,0,1,1H6a1,1,0,0,0,1-1V17a1,1,0,0,0-1-1H5.25V12.25h6V16H10.5a1,1,0,0,0-1,1v3a1,1,0,0,0,1,1h3a1,1,0,0,0,1-1V17a1,1,0,0,0-1-1h-.75V12.25h6V16H18a1,1,0,0,0-1,1v3a1,1,0,0,0,1,1h3a1,1,0,0,0,1-1V17a1,1,0,0,0-1-1" fill="#00b295"/>
      </g>
    </g>
  </g>
</svg>
