<svg xmlns="http://www.w3.org/2000/svg" xmlns:xlink="http://www.w3.org/1999/xlink" width="24" height="24" viewBox="0 0 24 24">
  <defs>
    <clipPath id="clip-path">
      <rect id="사각형_42389" data-name="사각형 42389" width="24" height="24" fill="#00b295"/>
    </clipPath>
  </defs>
  <g id="그룹_181220" data-name="그룹 181220" clip-path="url(#clip-path)">
    <g id="그룹_181219" data-name="그룹 181219">
      <g id="그룹_181218" data-name="그룹 181218" clip-path="url(#clip-path)">
        <path id="패스_92575" data-name="패스 92575" d="M12,10.2l3.165-1.217L6.756,5.1l-3.5,1.4a1.986,1.986,0,0,0-.346.2Z" fill="#00b295"/>
        <path id="패스_92576" data-name="패스 92576" d="M17.117,8.228,21.089,6.7a1.986,1.986,0,0,0-.346-.2l-8-3.2a2,2,0,0,0-1.486,0L8.673,4.331Z" fill="#00b295"/>
        <path id="패스_92577" data-name="패스 92577" d="M11.25,11.515,2.057,7.979A1.952,1.952,0,0,0,2,8.354v8.292A2,2,0,0,0,3.257,18.5l7.993,3.2Z" fill="#00b295"/>
        <path id="패스_92578" data-name="패스 92578" d="M12.75,11.515V21.7l7.993-3.2A2,2,0,0,0,22,16.646V8.354a1.952,1.952,0,0,0-.057-.375Z" fill="#00b295"/>
      </g>
    </g>
  </g>
</svg>
