<svg xmlns="http://www.w3.org/2000/svg" xmlns:xlink="http://www.w3.org/1999/xlink" width="24" height="24" viewBox="0 0 24 24">
  <defs>
    <clipPath id="clip-path">
      <rect id="사각형_42352" data-name="사각형 42352" width="24" height="24" fill="#00b295"/>
    </clipPath>
  </defs>
  <g id="그룹_181129" data-name="그룹 181129" clip-path="url(#clip-path)">
    <g id="그룹_181128" data-name="그룹 181128">
      <g id="그룹_181127" data-name="그룹 181127" clip-path="url(#clip-path)">
        <path id="패스_92534" data-name="패스 92534" d="M20,9H18a1,1,0,0,0-1,1V20a1,1,0,0,0,1,1h2a1,1,0,0,0,1-1V10a1,1,0,0,0-1-1" fill="#00b295"/>
        <path id="패스_92535" data-name="패스 92535" d="M13,14.538H11a1,1,0,0,0-1,1V20a1,1,0,0,0,1,1h2a1,1,0,0,0,1-1V15.538a1,1,0,0,0-1-1" fill="#00b295"/>
        <path id="패스_92536" data-name="패스 92536" d="M6,12.692H4a1,1,0,0,0-1,1V20a1,1,0,0,0,1,1H6a1,1,0,0,0,1-1V13.692a1,1,0,0,0-1-1" fill="#00b295"/>
        <path id="패스_92537" data-name="패스 92537" d="M18.087,6.77A1.98,1.98,0,0,0,19,7a2,2,0,1,0-2-2,1.973,1.973,0,0,0,.111.631l-4.2,3.6a1.96,1.96,0,0,0-2.48.542L6.978,8.785a2,2,0,1,0-.411,1.443l3.454.987A2,2,0,0,0,14,11a1.969,1.969,0,0,0-.112-.631Z" fill="#00b295"/>
      </g>
    </g>
  </g>
</svg>
