<svg id="analysis_24" xmlns="http://www.w3.org/2000/svg" xmlns:xlink="http://www.w3.org/1999/xlink" width="24" height="24" viewBox="0 0 24 24">
  <defs>
    <clipPath id="clip-path">
      <rect id="사각형_43355" data-name="사각형 43355" width="24" height="24" fill="none"/>
    </clipPath>
  </defs>
  <g id="그룹_182815" data-name="그룹 182815" clip-path="url(#clip-path)">
    <path id="패스_92883" data-name="패스 92883" d="M14.667,5.6H9.332A.535.535,0,0,1,8.8,5.064V2.93A.535.535,0,0,1,9.332,2.4h5.335a.535.535,0,0,1,.533.533V5.064a.535.535,0,0,1-.533.533" fill="#040000"/>
    <path id="패스_92884" data-name="패스 92884" d="M18,3.464H16.531V4.948a1.953,1.953,0,0,1-2,1.906H9.5a1.958,1.958,0,0,1-2-1.908V3.464H6a1.954,1.954,0,0,0-2,1.9V19.693A1.957,1.957,0,0,0,6,21.6H18a1.958,1.958,0,0,0,2-1.909V5.375a1.96,1.96,0,0,0-2-1.911M11.59,11.936a2,2,0,0,0,0,3.89v2.555a4.525,4.525,0,0,1,0-9Zm.9,6.445V15.826a2,2,0,0,0,1.495-1.495H16.54a4.428,4.428,0,0,1-4.05,4.05m1.495-4.95a2,2,0,0,0-1.495-1.495V9.381a4.429,4.429,0,0,1,4.05,4.05Z" fill="#040000"/>
  </g>
</svg>
