<svg id="Group_181272" data-name="Group 181272" xmlns="http://www.w3.org/2000/svg" xmlns:xlink="http://www.w3.org/1999/xlink" width="24" height="24" viewBox="0 0 24 24">
  <defs>
    <clipPath id="clip-path">
      <rect id="Rectangle_42431" data-name="Rectangle 42431" width="24" height="24" fill="#00b295"/>
    </clipPath>
  </defs>
  <g id="Group_181271" data-name="Group 181271" clip-path="url(#clip-path)">
    <path id="Path_92594" data-name="Path 92594" d="M9.5,19.5h-5V4.5h5ZM11,3H3.75A.75.75,0,0,0,3,3.75v16.5a.75.75,0,0,0,.75.75H11Z" fill="#00b295"/>
    <rect id="Rectangle_42429" data-name="Rectangle 42429" width="6.75" height="6.5" transform="translate(13.5 3.75)" fill="#00b295"/>
    <path id="Path_92595" data-name="Path 92595" d="M19.5,9.5H14.25v-5H19.5ZM20.25,3h-7.5v8H21V3.75A.75.75,0,0,0,20.25,3" fill="#00b295"/>
    <rect id="Rectangle_42430" data-name="Rectangle 42430" width="6.75" height="6.75" transform="translate(13.5 13.5)" fill="#00b295"/>
    <path id="Path_92596" data-name="Path 92596" d="M19.5,19.5H14.25V14.25H19.5ZM21,12.75H12.75V21h7.5a.75.75,0,0,0,.75-.75Z" fill="#00b295"/>
  </g>
  <rect id="Rectangle_42428" data-name="Rectangle 42428" width="6.5" height="16.5" transform="translate(3.75 3.75)" fill="#00b295"/>
</svg>
