<svg id="home_24px" xmlns="http://www.w3.org/2000/svg" xmlns:xlink="http://www.w3.org/1999/xlink" width="24" height="24" viewBox="0 0 24 24">
  <defs>
    <clipPath id="clip-path">
      <rect id="사각형_42436" data-name="사각형 42436" width="24" height="24" fill="none"/>
    </clipPath>
  </defs>
  <g id="그룹_181281" data-name="그룹 181281" clip-path="url(#clip-path)">
    <g id="그룹_181280" data-name="그룹 181280">
      <g id="그룹_181279" data-name="그룹 181279" clip-path="url(#clip-path)">
        <path id="패스_92597" data-name="패스 92597" d="M19.144,20.913H14.853a.842.842,0,0,1-.842-.842V14.617a.094.094,0,0,0-.088-.1H10.1a.1.1,0,0,0-.093.1v5.459a.842.842,0,0,1-.842.842h-4.3a.842.842,0,0,1-.842-.842V11.75H2.839a.841.841,0,0,1-.518-1.505l9.16-7.1a.842.842,0,0,1,1.035,0l9.143,7.09a.841.841,0,0,1-.518,1.505H19.986v8.321a.842.842,0,0,1-.842.842"/>
      </g>
    </g>
  </g>
</svg>
