<?xml version="1.0" encoding="utf-8"?>
<svg version="1.1" xmlns:xlink="http://www.w3.org/1999/xlink" width="18px" height="20px" xmlns="http://www.w3.org/2000/svg">
  <defs>
    <linearGradient gradientUnits="userSpaceOnUse" x1="0.829535294117647" y1="10.095221052631578" x2="17.632376470588234" y2="10.095221052631578" id="LinearGradient16">
      <stop id="Stop17" stop-color="#33e593" offset="0" />
      <stop id="Stop18" stop-color="#32e0e5" offset="1" />
    </linearGradient>
  </defs>
  <g transform="matrix(1 0 0 1 -12 -10 )">
    <path d="M 17.629517647058822 11.543894736842104  C 17.641058823529413 9.725021052631579  16.98194117647059 7.964968421052632  15.776576470588235 6.596536842105262  C 15.679058823529411 6.472157894736842  15.566399999999998 6.3602105263157895  15.44124705882353 6.263200000000001  C 15.44124705882353 6.263200000000001  10.729482352941178 8.061442105263158  9.6354 10.728105263157897  C 9.630317647058822 10.73663157894737  9.627776470588236 10.746421052631579  9.627988235294119 10.756315789473685  C 9.628305882352942 10.766210526315788  9.631376470588235 10.775894736842105  9.636882352941175 10.784105263157894  C 9.642494117647058 10.79242105263158  9.650223529411766 10.798947368421052  9.659329411764705 10.802947368421052  C 9.668435294117646 10.807052631578948  9.678494117647059 10.80842105263158  9.688341176470589 10.807052631578948  C 10.635776470588237 10.761157894736844  11.585329411764706 10.817052631578948  12.52069411764706 10.973684210526315  C 12.573635294117647 10.973684210526315  12.582423529411765 11.070210526315789  12.52069411764706 11.078947368421053  C 9.671611764705883 12.060631578947367  7.141637647058824 13.787894736842105  5.1971823529411765 16.07894736842105  C 5.185831764705882 16.088736842105263  5.1716435294117655 16.094736842105263  5.156661176470588 16.095894736842105  C 5.141689411764705 16.097157894736842  5.126717647058824 16.09357894736842  5.113916470588236 16.08578947368421  C 5.101125882352941 16.077894736842104  5.09117294117647 16.06621052631579  5.085518823529412 16.05242105263158  C 5.079864705882352 16.038526315789472  5.078795294117647 16.023263157894736  5.0824694117647065 16.008842105263156  C 5.720336470588236 14.427263157894735  6.654536470588235 12.980631578947367  7.835410588235294 11.745684210526317  C 7.879531764705882 11.745684210526317  7.835410588235294 11.657894736842104  7.835410588235294 11.649157894736843  C 7.062818823529412 11.66263157894737  6.305357647058823 11.86442105263158  5.629531764705882 12.236842105263158  C 5.629531764705882 12.236842105263158  5.541300000000001 12.236842105263158  5.567770588235295 12.157894736842106  C 7.394241176470588 8.07898947368421  12.908964705882353 6.017589473684211  14.797164705882352 5.657936842105263  C 15.496094117647058 4.572757894736842  15.986752941176473 3.368221052631579  16.24425882352941 2.1053052631578946  L 14.558929411764707 0.8772357894736842  C 14.589423529411766 2.298526315789474  14.371517647058823 3.7142842105263156  13.91484705882353 5.061442105263158  C 12.768776470588236 4.402631578947369  11.468541176470588 4.055221052631579  10.144694117647058 4.054105263157894  C 8.820910588235293 4.05298947368421  7.520092941176469 4.39821052631579  6.372942352941177 5.055094736842105  C 5.225802352941177 5.711978947368421  4.272723529411765 6.6574  3.609444705882353 7.796378947368421  C 2.946165882352941 8.935368421052631  2.596034117647059 10.227810526315789  2.594234117647059 11.543894736842104  C 2.6560058823529413 13.973684210526315  2.2677670588235292 15.377263157894737  0.829535294117647 18.026315789473685  C 6.758947058823529 19.780736842105263  12.070694117647058 20.149157894736845  15.741317647058823 16.5  C 17.003858823529413 15.160421052631579  17.682564705882353 13.378947368421052  17.629517647058822 11.543894736842104  Z " fill-rule="nonzero" fill="url(#LinearGradient16)" stroke="none" transform="matrix(1 0 0 1 12 10 )" />
  </g>
</svg>