<svg id="그룹_179105" data-name="그룹 179105" xmlns="http://www.w3.org/2000/svg" width="18" height="18" viewBox="0 0 18 18">
  <g id="그룹_179446" data-name="그룹 179446">
    <path id="패스_91984" data-name="패스 91984" d="M9,0a9,9,0,1,0,9,9A9,9,0,0,0,9,0m.954,13.986A1.282,1.282,0,0,1,9,14.355a1.317,1.317,0,0,1-.954-.369,1.274,1.274,0,0,1-.378-.954,1.332,1.332,0,1,1,2.286.954M11.178,8.9a4.262,4.262,0,0,0-.954.945,1.7,1.7,0,0,0-.261.936H7.884a3.506,3.506,0,0,1,.279-1.521,3.138,3.138,0,0,1,.972-1.107,5.519,5.519,0,0,0,.882-.8,1.13,1.13,0,0,0,.261-.747.924.924,0,0,0-.324-.747,1.4,1.4,0,0,0-.918-.27,1.269,1.269,0,0,0-.954.36,1.2,1.2,0,0,0-.342.873h-2.2a3.049,3.049,0,0,1,.45-1.62A3.148,3.148,0,0,1,7.227,4.059a3.767,3.767,0,0,1,1.8-.414,4.125,4.125,0,0,1,1.836.378,2.723,2.723,0,0,1,1.17,1.053,2.923,2.923,0,0,1,.405,1.53,2.865,2.865,0,0,1-1.269,2.3Z" fill="#fff"/>
  </g>
</svg>
