<svg xmlns="http://www.w3.org/2000/svg" width="29" height="29" viewBox="0 0 29 29">
  <g id="notice_28px" transform="translate(0.5 0.5)">
    <rect id="사각형_42264" data-name="사각형 42264" width="28" height="28" rx="5" fill="#e61717" stroke="rgba(0,0,0,0)" stroke-miterlimit="10" stroke-width="1"/>
    <g id="그룹_180951" data-name="그룹 180951" transform="translate(3.838 3.838)">
      <g id="Check_Circle_-_blue" data-name="Check Circle - blue" transform="translate(0 0)">
        <g id="그룹_842" data-name="그룹 842" transform="translate(0 0)">
          <circle id="타원_117" data-name="타원 117" cx="10" cy="10" r="10" transform="translate(0.162 0.162)" fill="#fff"/>
        </g>
      </g>
      <path id="패스_92531" data-name="패스 92531" d="M13.948,19.76a.949.949,0,0,1,.327-.743,1.3,1.3,0,0,1,1.635,0,1.01,1.01,0,0,1,0,1.487,1.293,1.293,0,0,1-1.635,0,.95.95,0,0,1-.327-.744M15.943,17.1H14.272l-.263-6.091h2.2Z" transform="translate(-5.112 -6.21)" fill="#e61717"/>
      <path id="패스_92531_-_윤곽선" data-name="패스 92531 - 윤곽선" d="M15.092,20.946a1.337,1.337,0,0,1-.917-.329,1.16,1.16,0,0,1,0-1.712,1.445,1.445,0,0,1,1.834,0,1.16,1.16,0,0,1,0,1.712A1.336,1.336,0,0,1,15.092,20.946Zm0-2.069a1.035,1.035,0,0,0-.718.253.86.86,0,0,0,0,1.263,1.143,1.143,0,0,0,1.436,0,.86.86,0,0,0,0-1.263A1.034,1.034,0,0,0,15.092,18.877Zm.994-1.63H14.128l-.276-6.391h2.511Zm-1.671-.3H15.8l.25-5.791H14.165Z" transform="translate(-5.112 -6.21)" fill="#e61717"/>
    </g>
  </g>
</svg>
