<svg xmlns="http://www.w3.org/2000/svg" xmlns:xlink="http://www.w3.org/1999/xlink" width="566" height="208" viewBox="0 0 566 208">
  <defs>
    <clipPath id="clip-path">
      <rect id="사각형_43276" data-name="사각형 43276" width="6.995" height="9.998" rx="3.497" transform="translate(0 0)" fill="#00b8e6" stroke="rgba(0,0,0,0)" stroke-width="1"/>
    </clipPath>
  </defs>
  <g id="그룹_182753" data-name="그룹 182753" transform="translate(-111 -1003)">
    <g id="그룹_182748" data-name="그룹 182748" transform="translate(-755 694.78)">
      <g id="그룹_182756" data-name="그룹 182756">
        <g id="그룹_182741" data-name="그룹 182741" transform="translate(0 15)">
          <path id="선_202" data-name="선 202" d="M.5,180h-1V0h1Z" transform="translate(1142.5 297.72)" fill="#8a8e99" opacity="0.5"/>
          <g id="그룹_182744" data-name="그룹 182744" transform="translate(0 114.281)">
            <path id="선_203" data-name="선 203" d="M460,.5H0v-1H460Z" transform="translate(911 363.439)" fill="#8a8e99"/>
            <path id="패스_92866" data-name="패스 92866" d="M6.608,0a.39.39,0,0,1,.271.109A.385.385,0,0,1,7,.375a.373.373,0,0,1-.083.231L5.456,2.4,3.8,4.415a.4.4,0,0,1-.262.142.407.407,0,0,1-.288-.077.388.388,0,0,1-.063-.065L1.546,2.4.083.607A.363.363,0,0,1,.014.477.349.349,0,0,1,0,.33.364.364,0,0,1,.05.191a.372.372,0,0,1,.1-.11A.406.406,0,0,1,.391,0" transform="translate(1370.44 366.937) rotate(-90)" fill="#8a8e99"/>
          </g>
          <g id="그룹_182754" data-name="그룹 182754">
            <path id="선_200" data-name="선 200" d="M.5,180h-1V0h1Z" transform="translate(911.5 298.22)" fill="#8a8e99"/>
            <path id="패스_92867" data-name="패스 92867" d="M6.608,5.439a.39.39,0,0,1,.271.109.385.385,0,0,1,.116.266.373.373,0,0,1-.083.231L5.456,7.835,3.8,9.854A.4.4,0,0,1,3.541,10a.407.407,0,0,1-.288-.077.388.388,0,0,1-.063-.065L1.546,7.836.083,6.046a.363.363,0,0,1-.069-.13A.349.349,0,0,1,0,5.769.364.364,0,0,1,.05,5.63a.372.372,0,0,1,.1-.11.406.406,0,0,1,.242-.08" transform="translate(914.997 307.219) rotate(180)" fill="#8a8e99"/>
          </g>
        </g>
        <text id="tCO_eq" data-name="tCO₂eq" transform="translate(866 324.22)" fill="rgba(0,0,0,0.5)" font-size="12" font-family="SpoqaHanSansNeo-Regular, Spoqa Han Sans Neo"><tspan x="0" y="0">tCO</tspan><tspan y="0" font-family="Helvetica">₂</tspan><tspan y="0">eq</tspan></text>
        <text id="_2017" data-name="2017" transform="translate(912 513.22)" fill="rgba(0,0,0,0.5)" font-size="12" font-family="SpoqaHanSansNeo-Regular, Spoqa Han Sans Neo"><tspan x="0" y="0">2017</tspan></text>
        <text id="_2050" data-name="2050" transform="translate(1373 513.22)" fill="rgba(0,0,0,0.5)" font-size="12" font-family="SpoqaHanSansNeo-Regular, Spoqa Han Sans Neo"><tspan x="-28" y="0">2050</tspan></text>
        <text id="_2030" data-name="2030" transform="translate(1128 513.22)" fill="rgba(0,0,0,0.5)" font-size="12" font-family="SpoqaHanSansNeo-Regular, Spoqa Han Sans Neo"><tspan x="0" y="0">2030</tspan></text>
        <g id="그룹_182757" data-name="그룹 182757" transform="translate(0 3.719)">
          <text id="기준년도" transform="translate(1379 370.501)" font-size="12" font-family="SpoqaHanSansNeo-Regular, Spoqa Han Sans Neo"><tspan x="0" y="0">기준년도</tspan></text>
          <g id="그룹_182742" data-name="그룹 182742" transform="translate(-462 -282.499)">
            <rect id="사각형_43273" data-name="사각형 43273" width="41" height="22" rx="4" transform="translate(1841 668)" fill="#00b8e6"/>
            <g id="그룹_181492" data-name="그룹 181492" transform="translate(-10 -23)">
              <text id="_30_" data-name="30%" transform="translate(1884 706)" fill="#fff" font-size="12" font-family="SpoqaHanSansNeo-Medium, Spoqa Han Sans Neo" font-weight="500"><tspan x="-25" y="0">30%</tspan></text>
            </g>
          </g>
          <g id="그룹_182755" data-name="그룹 182755">
            <circle id="타원_4136" data-name="타원 4136" cx="3.5" cy="3.5" r="3.5" transform="translate(908 361.501)" stroke="rgba(0,0,0,0)" stroke-width="1" opacity="0"/>
            <path id="패스_92868" data-name="패스 92868" d="M14735-7562l-456-61h456Z" transform="translate(-13369 7988)" fill="#00b8e6" opacity="0.12"/>
            <g id="그룹_182746" data-name="그룹 182746" transform="translate(-505 -176)">
              <g id="그룹_182659" data-name="그룹 182659" transform="translate(1867.505 592)">
                <rect id="사각형_43275" data-name="사각형 43275" width="2" height="58" transform="translate(2.495 -50.779)" fill="#00b8e6" stroke="rgba(0,0,0,0)" stroke-width="1"/>
                <g id="그룹_182658" data-name="그룹 182658">
                  <g id="그룹_182657" data-name="그룹 182657" clip-path="url(#clip-path)">
                    <path id="패스_92865" data-name="패스 92865" d="M6.608,5.439a.39.39,0,0,1,.271.109.385.385,0,0,1,.116.266.373.373,0,0,1-.083.231L5.456,7.835,3.8,9.854A.4.4,0,0,1,3.541,10a.407.407,0,0,1-.288-.077.388.388,0,0,1-.063-.065L1.546,7.836.083,6.046a.363.363,0,0,1-.069-.13A.349.349,0,0,1,0,5.769.364.364,0,0,1,.05,5.63a.372.372,0,0,1,.1-.11.406.406,0,0,1,.242-.08" fill="#00b8e6" stroke="rgba(0,0,0,0)" stroke-width="1"/>
                  </g>
                </g>
              </g>
              <rect id="사각형_43277" data-name="사각형 43277" width="12" height="12" rx="4" transform="translate(1865 591)" fill="none"/>
            </g>
            <line id="선_203-2" data-name="선 203" x2="463" transform="translate(911.5 365.001)" fill="none" stroke="#000" stroke-width="1" stroke-dasharray="4 4"/>
          </g>
        </g>
      </g>
    </g>
    <rect id="사각형_43322" data-name="사각형 43322" width="566" height="206" transform="translate(111 1003)" fill="none"/>
  </g>
</svg>
